<svg width="420" height="104" viewBox="0 0 420 104" fill="none" xmlns="http://www.w3.org/2000/svg">
  <defs>
    <linearGradient id="dpsm" x1="105" y1="28" x2="105" y2="136" gradientUnits="userSpaceOnUse">
      <stop stop-color="#F1C67A"/>
      <stop offset="1" stop-color="#D49342"/>
    </linearGradient>
  </defs>
  <rect width="420" height="104" rx="16" fill="#0A1830"/>
  <g transform="translate(4 4) scale(0.52)">
    <rect x="20" y="20" width="112" height="116" rx="22" fill="#FFFFFF" fill-opacity="0.08"/>
    <path d="M36 42C36 36.477 40.477 32 46 32H58.521C61.657 32 64.605 33.472 66.479 35.975L84.748 60.376V42C84.748 36.477 89.225 32 94.748 32H100.248C105.771 32 110.248 36.477 110.248 42V114C110.248 119.523 105.771 124 100.248 124H91.451C88.335 124 85.402 122.547 83.526 120.072L61.5 91.008V114C61.5 119.523 57.023 124 51.5 124H46C40.477 124 36 119.523 36 114V42Z" fill="#F8FAFC"/>
    <path d="M91.5 45.314L103.62 34L106.5 37.082V124H91.5V45.314Z" fill="url(#dpsm)"/>
    <circle cx="100.5" cy="28.5" r="6.5" fill="#F1C67A"/>
    <circle cx="100.5" cy="28.5" r="2.7" fill="#FFF7EA"/>
    <path d="M31 141C50.492 135.227 76.931 135.227 121 141" stroke="#D49342" stroke-width="6" stroke-linecap="round"/>
    <path d="M35 113.185C43.763 110.272 51.278 108.816 57.547 108.816C61.879 108.816 66.31 109.999 70.84 112.365L79.91 117.101C83.663 119.061 87.048 120.04 90.066 120.04C93.71 120.04 98.186 118.49 103.493 115.388C108.024 112.737 112.106 111.411 115.738 111.411C119.087 111.411 123.174 112.341 128 114.201L125.62 119.614C121.635 119.082 118.347 118.816 115.756 118.816C111.975 118.816 106.675 120.523 99.856 123.937C95.288 126.223 91.087 127.366 87.254 127.366C82.724 127.366 76.538 125.52 68.698 121.828C61.952 118.652 55.946 117.064 50.68 117.064C47.528 117.064 43.151 117.677 37.549 118.904L35 113.185Z" fill="#F8FAFC"/>
    <path d="M44 107.93C48.876 106.456 53.817 105.719 58.822 105.719C63.828 105.719 68.916 107.095 74.087 109.848C79.259 112.601 84.016 113.978 88.358 113.978C92.443 113.978 97.099 112.54 102.326 109.663C107.554 106.787 112.373 105.348 116.785 105.348C119.695 105.348 123.434 106.063 128 107.492" stroke="#0A1830" stroke-width="3" stroke-linecap="round"/>
    <path d="M50.983 101.96L58.312 93.337L66.017 101.215" stroke="#0A1830" stroke-width="2.7" stroke-linecap="round" stroke-linejoin="round"/>
    <path d="M69.288 100.592L75.197 92.308L81.278 100.592" stroke="#0A1830" stroke-width="2.7" stroke-linecap="round" stroke-linejoin="round"/>
    <circle cx="59.2" cy="103.7" r="1.5" fill="#0A1830"/>
    <circle cx="64.8" cy="105.4" r="1.5" fill="#0A1830"/>
    <circle cx="70.4" cy="107.1" r="1.5" fill="#0A1830"/>
  </g>
  <text x="100" y="49" fill="#FFFFFF" font-family="Manrope, Arial, sans-serif" font-size="30" font-weight="800" letter-spacing="-1">NEW SHOES</text>
  <text x="279" y="49" fill="#D49342" font-family="Manrope, Arial, sans-serif" font-size="30" font-weight="800" letter-spacing="-1">LTD</text>
  <text x="102" y="70" fill="#D9E2EE" font-family="Manrope, Arial, sans-serif" font-size="11.1" font-weight="700" letter-spacing="1.05">SHOES &amp; GENERAL MERCHANDISE WHOLESALE</text>
</svg>
